<svg width="126" height="40" viewBox="0 0 126 40" fill="none" xmlns="http://www.w3.org/2000/svg">
<path d="M53.6262 21.05C53.6262 26.8049 48.9833 31.0454 43.2858 31.0454C37.5879 31.0454 32.9451 26.8049 32.9451 21.05C32.9451 15.2546 37.5879 11.0545 43.2858 11.0545C48.9833 11.0545 53.6262 15.2546 53.6262 21.05ZM49.0994 21.05C49.0994 17.4538 46.4087 14.9932 43.2858 14.9932C40.1625 14.9932 37.4718 17.4538 37.4718 21.05C37.4718 24.6102 40.1625 27.1068 43.2858 27.1068C46.4087 27.1068 49.0994 24.6057 49.0994 21.05Z" fill="#EA4335"/>
<path d="M75.9338 21.05C75.9338 26.8049 71.2909 31.0454 65.5931 31.0454C59.8956 31.0454 55.2527 26.8049 55.2527 21.05C55.2527 15.2591 59.8956 11.0545 65.5931 11.0545C71.2909 11.0545 75.9338 15.2546 75.9338 21.05ZM71.407 21.05C71.407 17.4538 68.7163 14.9932 65.5931 14.9932C62.4701 14.9932 59.7795 17.4538 59.7795 21.05C59.7795 24.6102 62.4701 27.1068 65.5931 27.1068C68.7163 27.1068 71.407 24.6057 71.407 21.05Z" fill="#FBBC05"/>
<path d="M97.3114 11.6584V29.6035C97.3114 36.9852 92.8221 40 87.5147 40C82.5188 40 79.5119 36.7598 78.378 34.11L82.319 32.5193C83.0209 34.146 84.7403 36.0659 87.5102 36.0659C90.9073 36.0659 93.0127 34.0335 93.0127 30.2073V28.7697H92.8547C91.8413 29.9819 89.8897 31.0411 87.4265 31.0411C82.2726 31.0411 77.5508 26.6877 77.5508 21.0861C77.5508 15.4439 82.2726 11.0545 87.4265 11.0545C89.885 11.0545 91.8369 12.1135 92.8547 13.2897H93.0127V11.6629H97.3114V11.6584ZM93.3334 21.0861C93.3334 17.5665 90.912 14.9932 87.8309 14.9932C84.7076 14.9932 82.0912 17.5665 82.0912 21.0861C82.0912 24.5696 84.7076 27.1068 87.8309 27.1068C90.912 27.1068 93.3334 24.5696 93.3334 21.0861Z" fill="#4285F4"/>
<path d="M104.399 1.14014V30.4327H99.984V1.14014H104.399Z" fill="#34A853"/>
<path d="M121.603 24.3398L125.117 26.6111C123.983 28.238 121.25 31.0411 116.528 31.0411C110.673 31.0411 106.299 26.6517 106.299 21.0455C106.299 15.1014 110.71 11.05 116.022 11.05C121.371 11.05 123.987 15.178 124.842 17.4088L125.312 18.5444L111.533 24.0784C112.587 26.0839 114.228 27.1068 116.528 27.1068C118.833 27.1068 120.432 26.0072 121.603 24.3398ZM110.789 20.7436L120 17.0347C119.493 15.7864 117.969 14.9166 116.175 14.9166C113.875 14.9166 110.673 16.886 110.789 20.7436Z" fill="#EA4335"/>
<path d="M16.2333 18.4498V14.2091H30.9703C31.1143 14.9482 31.1885 15.8225 31.1885 16.7689C31.1885 19.9505 30.2915 23.8847 27.401 26.6878C24.5893 29.527 20.9969 31.0411 16.238 31.0411C7.41721 31.0411 0 24.074 0 15.5206C0 6.96713 7.41721 0 16.238 0C21.1177 0 24.5939 1.8567 27.2058 4.27673L24.1199 7.26907C22.247 5.5656 19.7095 4.24066 16.2333 4.24066C9.79203 4.24066 4.75429 9.27448 4.75429 15.5206C4.75429 21.7666 9.79203 26.8005 16.2333 26.8005C20.4113 26.8005 22.7907 25.1736 24.3151 23.6955C25.5513 22.4967 26.3646 20.7842 26.6853 18.4453L16.2333 18.4498Z" fill="#4285F4"/>
</svg>
